ffmpeg started on 2025-06-23 at 21:10:28
Report written to "D:\Convert\FFMetrics\reports\ssim_report-6.txt"
Log level: 32
Command line:
ffmpeg -hide_banner -nostdin -i "G:\\\xc0\xed\xe8\xec\xe5\\[\xd2\xee\xef-4]\\\xcc\xee\xe6\xe5\xf2, \xff \xe2\xf1\xf2\xf0\xe5\xf7\xf3 \xf2\xe5\xe1\xff \xe2 \xef\xee\xe4\xe7\xe5\xec\xe5\xeb\xfc\xe5\\\xd2\xc2-2\\Danmachi_Sword_Oratoria_[10]_[AniLibria_TV]_[HDTV-Rip]_HEVC.mkv" -i "G:\\\xc0\xed\xe8\xec\xe5\\[\xd2\xee\xef-4]\\\xcc\xee\xe6\xe5\xf2, \xff \xe2\xf1\xf2\xf0\xe5\xf7\xf3 \xf2\xe5\xe1\xff \xe2 \xef\xee\xe4\xe7\xe5\xec\xe5\xeb\xfc\xe5\\\xd2\xc2-2\\Danmachi_Sword_Oratoria_[10]_[AniLibria_TV]_[HDTV-Rip].mkv" -lavfi "[0:v]settb=AVTB,setpts=PTS-STARTPTS,format=pix_fmts=yuv420p10,fps=24000/1001,scale=1280:720:flags=bicubic[main];[1:v]settb=AVTB,setpts=PTS-STARTPTS,format=pix_fmts=yuv420p,fps=24000/1001,scale=1280:720:flags=bicubic[ref];[main][ref]ssim=eof_action=endall:stats_file='D\\:/Convert/FFMetrics/logs/ssim_logfile-6.txt'" -f null -
Input #0, matroska,webm, from 'G:\Аниме\[Топ-4]\Может, я встречу тебя в подземелье\ТВ-2\Danmachi_Sword_Oratoria_[10]_[AniLibria_TV]_[HDTV-Rip]_HEVC.mkv':
  Metadata:
    ENCODER         : Lavf61.7.100
  Duration: 00:23:59.73, start: -0.021000, bitrate: 655 kb/s
  Stream #0:0(jpn): Video: hevc (Main 10), yuv420p10le(tv, bt709, progressive), 1280x720 [SAR 1:1 DAR 16:9], 23.98 fps, 23.98 tbr, 1k tbn (default) (forced)
      Metadata:
        title           : [Leopard-Raws]
        ENCODER         : Lavc61.19.100 libx265
        BPS             : 456723
        DURATION        : 00:23:59.729708333
        NUMBER_OF_FRAMES: 34519
        NUMBER_OF_BYTES : 82194806
        _STATISTICS_WRITING_APP: mkvpropedit v66.0.0 ('Josie') 64-bit
        _STATISTICS_WRITING_DATE_UTC: 2025-06-23 11:20:07
        _STATISTICS_TAGS: BPS DURATION NUMBER_OF_FRAMES NUMBER_OF_BYTES
  Stream #0:1(rus): Audio: aac (LC), 48000 Hz, stereo, fltp (default) (forced)
      Metadata:
        title           : Sharon & LeeAnnushka
        ENCODER         : Lavc61.19.100 aac
        BPS             : 194353
        DURATION        : 00:23:59.701000000
        NUMBER_OF_FRAMES: 67487
        NUMBER_OF_BYTES : 34976354
        _STATISTICS_WRITING_APP: mkvpropedit v66.0.0 ('Josie') 64-bit
        _STATISTICS_WRITING_DATE_UTC: 2025-06-23 11:20:07
        _STATISTICS_TAGS: BPS DURATION NUMBER_OF_FRAMES NUMBER_OF_BYTES
  Stream #0:2(rus): Subtitle: ass (ssa) (default) (forced)
      Metadata:
        title           : Надписи
        BPS             : 66
        DURATION        : 00:23:04.960000000
        NUMBER_OF_FRAMES: 37
        NUMBER_OF_BYTES : 11473
        _STATISTICS_WRITING_APP: mkvpropedit v66.0.0 ('Josie') 64-bit
        _STATISTICS_WRITING_DATE_UTC: 2025-06-23 11:20:07
        _STATISTICS_TAGS: BPS DURATION NUMBER_OF_FRAMES NUMBER_OF_BYTES
  Stream #0:3(rus): Subtitle: ass (ssa)
      Metadata:
        title           : Полные
        BPS             : 184
        DURATION        : 00:23:41.780000000
        NUMBER_OF_FRAMES: 312
        NUMBER_OF_BYTES : 32826
        _STATISTICS_WRITING_APP: mkvpropedit v66.0.0 ('Josie') 64-bit
        _STATISTICS_WRITING_DATE_UTC: 2025-06-23 11:20:07
        _STATISTICS_TAGS: BPS DURATION NUMBER_OF_FRAMES NUMBER_OF_BYTES
Input #1, matroska,webm, from 'G:\Аниме\[Топ-4]\Может, я встречу тебя в подземелье\ТВ-2\Danmachi_Sword_Oratoria_[10]_[AniLibria_TV]_[HDTV-Rip].mkv':
  Metadata:
    encoder         : libebml v1.4.2 + libmatroska v1.6.4
    creation_time   : 2025-01-14T16:52:38.000000Z
  Duration: 00:23:59.73, start: 0.000000, bitrate: 2481 kb/s
  Stream #1:0(jpn): Video: h264 (High), yuv420p(tv, bt709, progressive), 1280x720 [SAR 1:1 DAR 16:9], 23.98 fps, 23.98 tbr, 1k tbn (default) (forced)
      Metadata:
        title           : [Leopard-Raws]
        BPS             : 2284516
        DURATION        : 00:23:59.730000000
        NUMBER_OF_FRAMES: 34519
        NUMBER_OF_BYTES : 411135883
        _STATISTICS_WRITING_APP: mkvmerge v66.0.0 ('Josie') 64-bit
        _STATISTICS_WRITING_DATE_UTC: 2025-01-14 16:52:38
        _STATISTICS_TAGS: BPS DURATION NUMBER_OF_FRAMES NUMBER_OF_BYTES
  Stream #1:1(rus): Audio: aac (LC), 48000 Hz, stereo, fltp (default) (forced)
      Metadata:
        title           : Sharon & LeeAnnushka
        BPS             : 192093
        DURATION        : 00:23:59.701000000
        NUMBER_OF_FRAMES: 67486
        NUMBER_OF_BYTES : 34569605
        _STATISTICS_WRITING_APP: mkvmerge v66.0.0 ('Josie') 64-bit
        _STATISTICS_WRITING_DATE_UTC: 2025-01-14 16:52:38
        _STATISTICS_TAGS: BPS DURATION NUMBER_OF_FRAMES NUMBER_OF_BYTES
  Stream #1:2(rus): Subtitle: ass (ssa) (default) (forced)
      Metadata:
        title           : Надписи
        BPS             : 66
        DURATION        : 00:23:04.960000000
        NUMBER_OF_FRAMES: 37
        NUMBER_OF_BYTES : 11473
        _STATISTICS_WRITING_APP: mkvmerge v66.0.0 ('Josie') 64-bit
        _STATISTICS_WRITING_DATE_UTC: 2025-01-14 16:52:38
        _STATISTICS_TAGS: BPS DURATION NUMBER_OF_FRAMES NUMBER_OF_BYTES
  Stream #1:3(rus): Subtitle: ass (ssa)
      Metadata:
        title           : Полные
        BPS             : 184
        DURATION        : 00:23:41.780000000
        NUMBER_OF_FRAMES: 312
        NUMBER_OF_BYTES : 32826
        _STATISTICS_WRITING_APP: mkvmerge v66.0.0 ('Josie') 64-bit
        _STATISTICS_WRITING_DATE_UTC: 2025-01-14 16:52:38
        _STATISTICS_TAGS: BPS DURATION NUMBER_OF_FRAMES NUMBER_OF_BYTES
  Stream #1:4: Attachment: ttf
      Metadata:
        filename        : 9808.ttf
        mimetype        : application/x-truetype-font
  Stream #1:5: Attachment: ttf
      Metadata:
        filename        : 10119.ttf
        mimetype        : application/x-truetype-font
  Stream #1:6: Attachment: ttf
      Metadata:
        filename        : 10323.ttf
        mimetype        : application/x-truetype-font
Stream mapping:
  Stream #0:0 (hevc) -> settb:default
  Stream #1:0 (h264) -> settb:default
  ssim:default -> Stream #0:0 (wrapped_avframe)
  Stream #0:1 -> #0:1 (aac (native) -> pcm_s16le (native))
Output #0, null, to 'pipe:':
  Metadata:
    encoder         : Lavf61.7.100
  Stream #0:0: Video: wrapped_avframe, yuv420p10le(tv, bt709, progressive), 1280x720 [SAR 1:1 DAR 16:9], q=2-31, 200 kb/s, 23.98 fps, 23.98 tbn
      Metadata:
        encoder         : Lavc61.19.100 wrapped_avframe
  Stream #0:1(rus): Audio: pcm_s16le, 48000 Hz, stereo, s16, 1536 kb/s (default) (forced)
      Metadata:
        title           : Sharon & LeeAnnushka
        _STATISTICS_TAGS: BPS DURATION NUMBER_OF_FRAMES NUMBER_OF_BYTES
        BPS             : 194353
        DURATION        : 00:23:59.701000000
        NUMBER_OF_FRAMES: 67487
        NUMBER_OF_BYTES : 34976354
        _STATISTICS_WRITING_APP: mkvpropedit v66.0.0 ('Josie') 64-bit
        _STATISTICS_WRITING_DATE_UTC: 2025-06-23 11:20:07
        encoder         : Lavc61.19.100 pcm_s16le
frame=  537 fps=0.0 q=-0.0 size=N/A time=00:00:22.39 bitrate=N/A speed=44.5x    frame=  999 fps=971 q=-0.0 size=N/A time=00:00:41.66 bitrate=N/A speed=40.5x    frame= 1409 fps=915 q=-0.0 size=N/A time=00:00:58.76 bitrate=N/A speed=38.2x    frame= 1796 fps=871 q=-0.0 size=N/A time=00:01:14.90 bitrate=N/A speed=36.3x    frame= 2202 fps=856 q=-0.0 size=N/A time=00:01:31.84 bitrate=N/A speed=35.7x    frame= 2586 fps=839 q=-0.0 size=N/A time=00:01:47.85 bitrate=N/A speed=  35x    frame= 2872 fps=797 q=-0.0 size=N/A time=00:01:59.78 bitrate=N/A speed=33.2x    frame= 3434 fps=835 q=-0.0 size=N/A time=00:02:23.22 bitrate=N/A speed=34.8x    frame= 3908 fps=843 q=-0.0 size=N/A time=00:02:42.99 bitrate=N/A speed=35.1x    frame= 4510 fps=876 q=-0.0 size=N/A time=00:03:08.10 bitrate=N/A speed=36.5x    frame= 5056 fps=892 q=-0.0 size=N/A time=00:03:30.87 bitrate=N/A speed=37.2x    frame= 5630 fps=912 q=-0.0 size=N/A time=00:03:54.81 bitrate=N/A speed=  38x    frame= 6277 fps=937 q=-0.0 size=N/A time=00:04:21.80 bitrate=N/A speed=39.1x    frame= 6833 fps=946 q=-0.0 size=N/A time=00:04:44.99 bitrate=N/A speed=39.5x    frame= 7488 fps=969 q=-0.0 size=N/A time=00:05:12.31 bitrate=N/A speed=40.4x    frame= 8073 fps=980 q=-0.0 size=N/A time=00:05:36.71 bitrate=N/A speed=40.9x    frame= 8704 fps=994 q=-0.0 size=N/A time=00:06:03.02 bitrate=N/A speed=41.4x    frame= 9343 fps=1008 q=-0.0 size=N/A time=00:06:29.68 bitrate=N/A speed=  42x    frame= 9959 fps=1017 q=-0.0 size=N/A time=00:06:55.37 bitrate=N/A speed=42.4x    frame=10577 fps=1026 q=-0.0 size=N/A time=00:07:21.14 bitrate=N/A speed=42.8x    frame=11200 fps=1035 q=-0.0 size=N/A time=00:07:47.13 bitrate=N/A speed=43.2x    frame=11855 fps=1045 q=-0.0 size=N/A time=00:08:14.45 bitrate=N/A speed=43.6x    frame=12473 fps=1052 q=-0.0 size=N/A time=00:08:40.22 bitrate=N/A speed=43.9x    frame=13163 fps=1064 q=-0.0 size=N/A time=00:09:09.00 bitrate=N/A speed=44.4x    frame=13674 fps=1061 q=-0.0 size=N/A time=00:09:30.31 bitrate=N/A speed=44.3x    frame=14139 fps=1055 q=-0.0 size=N/A time=00:09:49.71 bitrate=N/A speed=  44x    frame=14728 fps=1058 q=-0.0 size=N/A time=00:10:14.28 bitrate=N/A speed=44.1x    frame=15244 fps=1056 q=-0.0 size=N/A time=00:10:35.80 bitrate=N/A speed=44.1x    frame=15801 fps=1058 q=-0.0 size=N/A time=00:10:59.03 bitrate=N/A speed=44.1x    frame=16346 fps=1057 q=-0.0 size=N/A time=00:11:21.76 bitrate=N/A speed=44.1x    frame=16928 fps=1060 q=-0.0 size=N/A time=00:11:46.03 bitrate=N/A speed=44.2x    frame=17533 fps=1063 q=-0.0 size=N/A time=00:12:11.27 bitrate=N/A speed=44.3x    frame=18076 fps=1063 q=-0.0 size=N/A time=00:12:33.91 bitrate=N/A speed=44.3x    frame=18522 fps=1057 q=-0.0 size=N/A time=00:12:52.52 bitrate=N/A speed=44.1x    frame=18856 fps=1045 q=-0.0 size=N/A time=00:13:06.45 bitrate=N/A speed=43.6x    frame=19265 fps=1038 q=-0.0 size=N/A time=00:13:23.51 bitrate=N/A speed=43.3x    frame=19813 fps=1039 q=-0.0 size=N/A time=00:13:46.36 bitrate=N/A speed=43.3x    frame=20449 fps=1044 q=-0.0 size=N/A time=00:14:12.89 bitrate=N/A speed=43.5x    frame=21101 fps=1050 q=-0.0 size=N/A time=00:14:40.08 bitrate=N/A speed=43.8x    frame=21614 fps=1049 q=-0.0 size=N/A time=00:15:01.48 bitrate=N/A speed=43.7x    frame=22144 fps=1048 q=-0.0 size=N/A time=00:15:23.58 bitrate=N/A speed=43.7x    frame=22685 fps=1048 q=-0.0 size=N/A time=00:15:46.15 bitrate=N/A speed=43.7x    frame=23383 fps=1055 q=-0.0 size=N/A time=00:16:15.26 bitrate=N/A speed=  44x    frame=24039 fps=1060 q=-0.0 size=N/A time=00:16:42.62 bitrate=N/A speed=44.2x    frame=24614 fps=1061 q=-0.0 size=N/A time=00:17:06.60 bitrate=N/A speed=44.3x    frame=25225 fps=1063 q=-0.0 size=N/A time=00:17:32.09 bitrate=N/A speed=44.4x    frame=25794 fps=1065 q=-0.0 size=N/A time=00:17:55.82 bitrate=N/A speed=44.4x    frame=26427 fps=1068 q=-0.0 size=N/A time=00:18:22.22 bitrate=N/A speed=44.6x    frame=26879 fps=1064 q=-0.0 size=N/A time=00:18:41.07 bitrate=N/A speed=44.4x    frame=27475 fps=1066 q=-0.0 size=N/A time=00:19:05.93 bitrate=N/A speed=44.5x    frame=28016 fps=1066 q=-0.0 size=N/A time=00:19:28.50 bitrate=N/A speed=44.5x    frame=28549 fps=1065 q=-0.0 size=N/A time=00:19:50.73 bitrate=N/A speed=44.4x    frame=29018 fps=1062 q=-0.0 size=N/A time=00:20:10.29 bitrate=N/A speed=44.3x    frame=29513 fps=1060 q=-0.0 size=N/A time=00:20:30.93 bitrate=N/A speed=44.2x    frame=30067 fps=1060 q=-0.0 size=N/A time=00:20:54.04 bitrate=N/A speed=44.2x    frame=30636 fps=1061 q=-0.0 size=N/A time=00:21:17.77 bitrate=N/A speed=44.3x    frame=31216 fps=1062 q=-0.0 size=N/A time=00:21:41.96 bitrate=N/A speed=44.3x    frame=31907 fps=1067 q=-0.0 size=N/A time=00:22:10.78 bitrate=N/A speed=44.5x    frame=32462 fps=1067 q=-0.0 size=N/A time=00:22:33.93 bitrate=N/A speed=44.5x    frame=32958 fps=1066 q=-0.0 size=N/A time=00:22:54.62 bitrate=N/A speed=44.4x    frame=33456 fps=1064 q=-0.0 size=N/A time=00:23:15.39 bitrate=N/A speed=44.4x    frame=33998 fps=1064 q=-0.0 size=N/A time=00:23:37.99 bitrate=N/A speed=44.4x    frame=34512 fps=1062 q=-0.0 size=N/A time=00:23:59.43 bitrate=N/A speed=44.3x    [Parsed_ssim_10 @ 00000234eb8f6c40] SSIM Y:0.989965 (19.984919) U:0.991084 (20.498335) V:0.992087 (21.016844) All:0.990505 (20.225233)
[out#0/null @ 00000234e8fbc080] video:14832KiB audio:269948KiB subtitle:0KiB other streams:0KiB global headers:0KiB muxing overhead: unknown
frame=34519 fps=1062 q=-0.0 Lsize=N/A time=00:23:59.72 bitrate=N/A speed=44.3x    
